Motion_pl06
version=1
nRows=9
nColumns=43
inDegrees=yes
endheader
time	pelvis_tilt	pelvis_list	pelvis_rotation	pelvis_tx	pelvis_ty	pelvis_tz	hip_flexion_r	hip_adduction_r	hip_rotation_r	knee_angle_r	ankle_angle_r	subtalar_angle_r	mtp_angle_r	hip_flexion_l	hip_adduction_l	hip_rotation_l	knee_angle_l	ankle_angle_l	subtalar_angle_l	mtp_angle_l	lumbar_extension	lumbar_bending	lumbar_rotation	neck_flexion	neck_lateral_bending	neck_rotation	arm_flex_r	arm_add_r	arm_rot_r	elbow_flex_r	pro_sup_r	wrist_flex_r	wrist_dev_r	hand_finger_flex_r	arm_flex_l	arm_add_l	arm_rot_l	elbow_flex_l	pro_sup_l	wrist_flex_l	wrist_dev_l	hand_finger_flex_l
      1.62500000	      1.42439853	     -8.03759419	     89.86674461	     -0.00077677	      0.69459419	      0.36201922	     68.54959113	     -5.10951203	     -1.94620917	   -102.20233808	     18.20039779	      4.46153858	     24.43668708	     69.46747723	    -10.46637991	      0.34838395	   -101.57489615	     12.57137993	     23.53828853	     42.11026289	    -48.65660666	      1.28340800	      2.05141115	     36.01784123	     -0.66580665	     -0.30643548	     80.04038677	    -25.51057679	      8.01226172	     57.60212263	    103.55560479	     -5.47436927	    -16.48964999	      0.61336190	     73.78115911	    -29.22734251	     12.39120821	     49.30178333	    111.25521358	    -31.16117301	     -6.14975649	      2.20909096
      1.62750000	      1.45030065	     -8.20582057	     89.87692752	     -0.00074745	      0.69754704	      0.36191381	     68.29713270	     -5.04378103	     -1.97566230	   -101.56642664	     18.13665161	      4.47146019	     24.40556634	     69.22903267	    -10.44819179	      0.29537613	   -100.96179200	     12.52393525	     23.52919379	     42.07932062	    -48.50439397	      1.30697819	      2.06936068	     36.08852117	     -0.64992766	     -0.31240553	     79.26921474	    -25.45521260	      8.07281450	     57.31156784	    103.60080551	     -5.42740110	    -16.47641703	      0.60847201	     73.02402343	    -29.10622980	     12.48120567	     49.07087329	    111.26238702	    -31.07039118	     -6.12182828	      2.18392924
      1.63000000	      1.52564882	     -8.21259391	     89.85021226	     -0.00049481	      0.70067683	      0.36126186	     67.84001554	     -4.91485082	     -2.07135490	   -100.98941490	     18.11651680	      4.41424577	     24.31428092	     68.80615014	    -10.53681020	      0.28358280	   -100.42233201	     12.46108908	     23.50712189	     41.98270194	    -48.50570414	      1.30580663	      2.14821595	     36.16394130	     -0.60506061	     -0.31786214	     78.13792150	    -25.18364781	      7.48783323	     57.24667371	    103.70070122	     -5.48192791	    -16.80507932	      0.48167999	     71.99709089	    -28.87367848	     12.05685725	     49.12311307	    111.27290175	    -30.93013537	     -6.29675248	      1.94222913
      1.63250000	      1.58056583	     -8.23284242	     89.82782781	     -0.00031712	      0.70399305	      0.36077785	     67.38023940	     -4.80616241	     -2.15624612	   -100.34883827	     18.10165172	      4.31461099	     24.16863445	     68.37055009	    -10.60453981	      0.23348328	    -99.81448922	     12.43258278	     23.52011836	     41.84447906	    -48.52781490	      1.31233165	      2.19176152	     36.29259428	     -0.56020942	     -0.30694049	     77.18750947	    -24.91400892	      7.01203244	     57.03712194	    104.07366210	     -5.31419811	    -17.07808925	      0.38814469	     71.03289747	    -28.63558023	     11.55019425	     49.07771746	    111.39639397	    -30.54933059	     -6.52527510	      1.60368127
      1.63500000	      1.59356036	     -8.39241308	     89.84029007	     -0.00041717	      0.70685857	      0.36062710	     67.13534924	     -4.76185077	     -2.16832150	    -99.73499315	     18.02863586	      4.32468028	     24.13592777	     68.13658473	    -10.56622729	      0.17066781	    -99.22225775	     12.37918902	     23.51254173	     41.81446598	    -48.36473365	      1.34925801	      2.19813851	     36.33512784	     -0.56240352	     -0.30479203	     76.42783347	    -24.87511478	      7.14690831	     56.72037197	    104.14829317	     -5.23676270	    -17.02465578	      0.39871290	     70.26237137	    -28.51238927	     11.69379653	     48.82043598	    111.42086054	    -30.44667798	     -6.49019359	      1.58607053
      1.63750000	      1.61099526	     -8.37836499	     89.85533308	     -0.00041195	      0.71005164	      0.36000427	     66.65939336	     -4.73504773	     -2.24007083	    -99.14698429	     18.00003602	      4.24713266	     24.02367853	     67.68612756	    -10.55819510	      0.10631103	    -98.65112878	     12.25505463	     23.45159152	     41.70296497	    -48.38815692	      1.37097947	      2.19188619	     36.35463594	     -0.59317633	     -0.27227774	     75.36451707	    -24.64094389	      6.69195684	     56.63728495	    104.35848509	     -5.25602824	    -17.22465969	      0.27845224	     69.23634407	    -28.29099695	     11.30600675	     48.83459383	    111.47992653	    -30.34189096	     -6.64337735	      1.33065976
      1.64000000	      1.61916815	     -8.53143205	     89.86701976	     -0.00050185	      0.71302785	      0.35983585	     66.38775770	     -4.69798017	     -2.26552324	    -98.49722832	     17.93462225	      4.24758030	     23.98574914	     67.43838440	    -10.51516192	      0.03740155	    -98.03358301	     12.19059978	     23.42929118	     41.66782024	    -48.24477757	      1.39954895	      2.18438587	     36.41796107	     -0.58624020	     -0.27033534	     74.58364656	    -24.58171376	      6.77975554	     56.32596756	    104.43758033	     -5.19554629	    -17.18123434	      0.27801078	     68.45134505	    -28.15441397	     11.39920535	     48.59273005	    111.49688224	    -30.25231485	     -6.61894769	      1.30788337
      1.64250000	      1.58528186	     -8.21811543	     89.92134808	     -0.00073244	      0.71717641	      0.35906998	     65.50806422	     -4.76771869	     -2.33183357	    -97.82248546	     17.98963986	      4.06925830	     23.42475920	     66.58887487	    -10.41270813	     -0.10104528	    -97.39049571	     12.13687046	     23.15662271	     41.22425243	    -48.66006419	      1.45793975	      2.01875913	     36.64900127	     -0.60833469	     -0.13568612	     73.69852662	    -23.99776880	      5.79714363	     56.08139807	    106.10051197	     -4.51036235	    -17.44392751	     -0.08461111	     67.27170274	    -27.81855843	      9.97267004	     48.73335952	    112.16544363	    -28.96280612	     -7.15457667	      0.52379933
      1.64500000	      1.59225541	     -8.38670315	     89.91942910	     -0.00085579	      0.72005281	      0.35885101	     65.26698726	     -4.73080347	     -2.35689717	    -97.19620067	     17.92479031	      4.09148443	     23.39314118	     66.37645281	    -10.36139475	     -0.15473193	    -96.80048185	     12.02077052	     23.14951544	     41.18967538	    -48.48517661	      1.48708974	      2.03069322	     36.64695874	     -0.63721854	     -0.13060288	     72.85736596	    -23.94607980	      5.84159378	     55.82128308	    106.10559619	     -4.50768690	    -17.40554040	     -0.11659775	     66.45456304	    -27.66386408	     10.09974947	     48.49577236	    112.16201010	    -28.94084688	     -7.07345657	      0.49640681
